{"asset":{"version":"2.0","generator":"babylon.js glTF exporter for 3dsmax 2021 v20210401.5"},"extensionsUsed":["KHR_texture_transform"],"extensionsRequired":["KHR_texture_transform"],"scene":0,"scenes":[{"nodes":[0,1,2,3,4,30,31,32]}],"nodes":[{"mesh":0,"translation":[-1.27,0.0,1.27],"name":"Plane001"},{"mesh":1,"translation":[-5.5513464E-08,1.52399993,1.2700001],"rotation":[0.49999997,-0.50000006,0.5000001,0.49999997],"name":"Plane002"},{"mesh":2,"translation":[-1.27,1.52399993,6.661615E-08],"rotation":[0.7071068,0.0,0.0,0.7071067],"name":"Plane003"},{"mesh":3,"translation":[-0.695989847,0.08431498,0.6786583],"scale":[0.6175217,0.6175217,0.6175217],"name":"LPTable"},{"children":[5],"name":"Model"},{"children":[6,7],"name":"Component_"},{"mesh":4,"translation":[-1.9524684,0.826454461,0.8469408],"name":"Componen01"},{"children":[8,9,24],"name":"Componen02"},{"mesh":5,"translation":[-1.9524684,0.826454461,0.8469408],"name":"Componen08"},{"children":[10,11,23],"name":"Componen09"},{"mesh":6,"translation":[-1.9524684,0.826454461,0.8469408],"name":"Componen10"},{"children":[12,13],"name":"Componen11"},{"mesh":7,"translation":[-1.9524684,0.826454461,0.8469408],"name":"Componen12"},{"children":[14],"mesh":8,"translation":[-1.9524684,0.826454461,0.8469408],"name":"Componen13"},{"children":[15,16,19,22],"name":"Componen14"},{"mesh":9,"name":"Componen15"},{"children":[17,18],"name":"Componen16"},{"mesh":10,"name":"Mesh01"},{"mesh":11,"name":"Mesh02"},{"children":[20,21],"name":"Componen17"},{"mesh":12,"name":"Mesh03"},{"mesh":13,"name":"Mesh04"},{"mesh":14,"name":"Componen18"},{"mesh":15,"translation":[-1.9524684,0.826454461,0.8469408],"name":"Group1"},{"children":[25,26,27,28,29],"name":"OuterShell"},{"mesh":16,"translation":[-1.9524684,0.826454461,0.8469408],"name":"Componen03"},{"mesh":17,"translation":[-1.9524684,0.826454461,0.8469408],"name":"Componen04"},{"mesh":18,"translation":[-1.9524684,0.826454461,0.8469408],"name":"Componen05"},{"mesh":19,"translation":[-1.9524684,0.826454461,0.8469408],"name":"Componen06"},{"mesh":20,"translation":[-1.9524684,0.826454461,0.8469408],"name":"Componen07"},{"translation":[1.51931381,-0.5738463,-1.35536766],"name":"PhysCamera001.Target"},{"translation":[-0.7163808,1.23963606,0.6781303],"rotation":[-0.707106769,0.0,0.0,0.707106769],"name":"ArnoldLight001"},{"camera":0,"translation":[-5.18459558,4.471853,5.55746746],"rotation":[-0.221490026,-0.364701748,-0.08975987,0.899932265],"name":"PhysCamera001"}],"cameras":[{"perspective":{"yfov":0.4940845,"zfar":10000.0,"znear":0.1},"type":"perspective","name":"PhysCamera001"}],"meshes":[{"primitives":[{"attributes":{"POSITION":1,"NORMAL":2,"TEXCOORD_0":3},"indices":0,"material":0}],"name":"Plane001"},{"primitives":[{"attributes":{"POSITION":5,"NORMAL":6,"TEXCOORD_0":7},"indices":4,"material":1}],"name":"Plane002"},{"primitives":[{"attributes":{"POSITION":9,"NORMAL":10,"TEXCOORD_0":11},"indices":8,"material":1}],"name":"Plane003"},{"primitives":[{"attributes":{"POSITION":13,"NORMAL":14,"TEXCOORD_0":15},"indices":12,"material":2}],"name":"LPTable"},{"primitives":[{"attributes":{"POSITION":17,"NORMAL":18,"TEXCOORD_0":19},"indices":16,"material":3}],"name":"Componen01"},{"primitives":[{"attributes":{"POSITION":21,"NORMAL":22,"TEXCOORD_0":23},"indices":20,"material":4}],"name":"Componen08"},{"primitives":[{"attributes":{"POSITION":25,"NORMAL":26,"TEXCOORD_0":27},"indices":24,"material":5}],"name":"Componen10"},{"primitives":[{"attributes":{"POSITION":29,"NORMAL":30,"TEXCOORD_0":31},"indices":28,"material":6}],"name":"Componen12"},{"primitives":[{"attributes":{"POSITION":33,"NORMAL":34,"TEXCOORD_0":35},"indices":32,"material":7}],"name":"Componen13"},{"primitives":[{"attributes":{"POSITION":37,"NORMAL":38,"TEXCOORD_0":39},"indices":36,"material":6}],"name":"Componen15"},{"primitives":[{"attributes":{"POSITION":41,"NORMAL":42,"TEXCOORD_0":43},"indices":40,"material":7}],"name":"Mesh01"},{"primitives":[{"attributes":{"POSITION":45,"NORMAL":46,"TEXCOORD_0":47},"indices":44,"material":7}],"name":"Mesh02"},{"primitives":[{"attributes":{"POSITION":49,"NORMAL":50,"TEXCOORD_0":51},"indices":48,"material":7}],"name":"Mesh03"},{"primitives":[{"attributes":{"POSITION":53,"NORMAL":54,"TEXCOORD_0":55},"indices":52,"material":7}],"name":"Mesh04"},{"primitives":[{"attributes":{"POSITION":57,"NORMAL":58,"TEXCOORD_0":59},"indices":56,"material":8}],"name":"Componen18"},{"primitives":[{"attributes":{"POSITION":61,"NORMAL":62,"TEXCOORD_0":63},"indices":60,"material":7}],"name":"Group1"},{"primitives":[{"attributes":{"POSITION":65,"NORMAL":66,"TEXCOORD_0":67},"indices":64,"material":4}],"name":"Componen03"},{"primitives":[{"attributes":{"POSITION":69,"NORMAL":70,"TEXCOORD_0":71},"indices":68,"material":4}],"name":"Componen04"},{"primitives":[{"attributes":{"POSITION":73,"NORMAL":74,"TEXCOORD_0":75},"indices":72,"material":4}],"name":"Componen05"},{"primitives":[{"attributes":{"POSITION":77,"NORMAL":78,"TEXCOORD_0":79},"indices":76,"material":4}],"name":"Componen06"},{"primitives":[{"attributes":{"POSITION":81,"NORMAL":82,"TEXCOORD_0":83},"indices":80,"material":4}],"name":"Componen07"}],"accessors":[{"bufferView":0,"componentType":5123,"count":96,"type":"SCALAR","name":"accessorIndices"},{"bufferView":1,"componentType":5126,"count":96,"max":[1.27,0.0,1.27],"min":[-1.27,0.0,-1.27],"type":"VEC3","name":"accessorPositions"},{"bufferView":1,"byteOffset":1152,"componentType":5126,"count":96,"type":"VEC3","name":"accessorNormals"},{"bufferView":2,"componentType":5126,"count":96,"type":"VEC2","name":"accessorUVs"},{"bufferView":0,"byteOffset":192,"componentType":5123,"count":96,"type":"SCALAR","name":"accessorIndices"},{"bufferView":1,"byteOffset":2304,"componentType":5126,"count":96,"max":[1.27,0.0,1.52399993],"min":[-1.27,0.0,-1.52399993],"type":"VEC3","name":"accessorPositions"},{"bufferView":1,"byteOffset":3456,"componentType":5126,"count":96,"type":"VEC3","name":"accessorNormals"},{"bufferView":2,"byteOffset":768,"componentType":5126,"count":96,"type":"VEC2","name":"accessorUVs"},{"bufferView":0,"byteOffset":384,"componentType":5123,"count":96,"type":"SCALAR","name":"accessorIndices"},{"bufferView":1,"byteOffset":4608,"componentType":5126,"count":96,"max":[1.27,0.0,1.52399993],"min":[-1.27,0.0,-1.52399993],"type":"VEC3","name":"accessorPositions"},{"bufferView":1,"byteOffset":5760,"componentType":5126,"count":96,"type":"VEC3","name":"accessorNormals"},{"bufferView":2,"byteOffset":1536,"componentType":5126,"count":96,"type":"VEC2","name":"accessorUVs"},{"bufferView":0,"byteOffset":576,"componentType":5123,"count":1086,"type":"SCALAR","name":"accessorIndices"},{"bufferView":1,"byteOffset":6912,"componentType":5126,"count":1086,"max":[0.558800042,1.19430053,0.5588001],"min":[-0.5588,-0.07435806,-0.5587999],"type":"VEC3","name":"accessorPositions"},{"bufferView":1,"byteOffset":19944,"componentType":5126,"count":1086,"type":"VEC3","name":"accessorNormals"},{"bufferView":2,"byteOffset":2304,"componentType":5126,"count":1086,"type":"VEC2","name":"accessorUVs"},{"bufferView":0,"byteOffset":2748,"componentType":5123,"count":2304,"type":"SCALAR","name":"accessorIndices"},{"bufferView":1,"byteOffset":32976,"componentType":5126,"count":2304,"max":[1.4623822,0.533253849,0.0575779155],"min":[1.0281837,0.262149423,-0.37662065],"type":"VEC3","name":"accessorPositions"},{"bufferView":1,"byteOffset":60624,"componentType":5126,"count":2304,"type":"VEC3","name":"accessorNormals"},{"bufferView":2,"byteOffset":10992,"componentType":5126,"count":2304,"type":"VEC2","name":"accessorUVs"},{"bufferView":0,"byteOffset":7356,"componentType":5123,"count":336,"type":"SCALAR","name":"accessorIndices"},{"bufferView":1,"byteOffset":88272,"componentType":5126,"count":336,"max":[1.34109056,0.02,-0.06390244],"min":[1.1510905,1.80477853E-16,-0.24390243],"type":"VEC3","name":"accessorPositions"},{"bufferView":1,"byteOffset":92304,"componentType":5126,"count":336,"type":"VEC3","name":"accessorNormals"},{"bufferView":2,"byteOffset":29424,"componentType":5126,"count":336,"type":"VEC2","name":"accessorUVs"},{"bufferView":0,"byteOffset":8028,"componentType":5123,"count":4998,"type":"SCALAR","name":"accessorIndices"},{"bufferView":1,"byteOffset":96336,"componentType":5126,"count":4998,"max":[1.28941309,0.336411536,-0.110579841],"min":[1.202768,0.28928,-0.197225034],"type":"VEC3","name":"accessorPositions"},{"bufferView":1,"byteOffset":156312,"componentType":5126,"count":4998,"type":"VEC3","name":"accessorNormals"},{"bufferView":2,"byteOffset":32112,"componentType":5126,"count":4998,"type":"VEC2","name":"accessorUVs"},{"bufferView":0,"byteOffset":18024,"componentType":5123,"count":4530,"type":"SCALAR","name":"accessorIndices"},{"bufferView":1,"byteOffset":216288,"componentType":5126,"count":4530,"max":[1.28022754,0.428881675,-0.119765468],"min":[1.21195364,0.344019681,-0.1880394],"type":"VEC3","name":"accessorPositions"},{"bufferView":1,"byteOffset":270648,"componentType":5126,"count":4530,"type":"VEC3","name":"accessorNormals"},{"bufferView":2,"byteOffset":72096,"componentType":5126,"count":4530,"type":"VEC2","name":"accessorUVs"},{"bufferView":0,"byteOffset":27084,"componentType":5123,"count":4098,"type":"SCALAR","name":"accessorIndices"},{"bufferView":1,"byteOffset":325008,"componentType":5126,"count":4098,"max":[1.2622478,0.344019681,-0.137745246],"min":[1.22993338,0.3119238,-0.170059636],"type":"VEC3","name":"accessorPositions"},{"bufferView":1,"byteOffset":374184,"componentType":5126,"count":4098,"type":"VEC3","name":"accessorNormals"},{"bufferView":2,"byteOffset":108336,"componentType":5126,"count":4098,"type":"VEC2","name":"accessorUVs"},{"bufferView":0,"byteOffset":35280,"componentType":5123,"count":2514,"type":"SCALAR","name":"accessorIndices"},{"bufferView":1,"byteOffset":423360,"componentType":5126,"count":2514,"max":[1.25298512,0.387123644,-0.152109846],"min":[1.23919606,0.335001439,-0.155695021],"type":"VEC3","name":"accessorPositions"},{"bufferView":1,"byteOffset":453528,"componentType":5126,"count":2514,"type":"VEC3","name":"accessorNormals"},{"bufferView":2,"byteOffset":141120,"componentType":5126,"count":2514,"type":"VEC2","name":"accessorUVs"},{"bufferView":0,"byteOffset":40308,"componentType":5123,"count":276,"type":"SCALAR","name":"accessorIndices"},{"bufferView":1,"byteOffset":483696,"componentType":5126,"count":276,"max":[1.24153185,0.401371062,-0.153669044],"min":[1.22961521,0.334172875,-0.154135823],"type":"VEC3","name":"accessorPositions"},{"bufferView":1,"byteOffset":487008,"componentType":5126,"count":276,"type":"VEC3","name":"accessorNormals"},{"bufferView":2,"byteOffset":161232,"componentType":5126,"count":276,"type":"VEC2","name":"accessorUVs"},{"bufferView":0,"byteOffset":40860,"componentType":5123,"count":348,"type":"SCALAR","name":"accessorIndices"},{"bufferView":1,"byteOffset":490320,"componentType":5126,"count":348,"max":[1.24919426,0.400901765,-0.1538097],"min":[1.23830783,0.334172875,-0.153995171],"type":"VEC3","name":"accessorPositions"},{"bufferView":1,"byteOffset":494496,"componentType":5126,"count":348,"type":"VEC3","name":"accessorNormals"},{"bufferView":2,"byteOffset":163440,"componentType":5126,"count":348,"type":"VEC2","name":"accessorUVs"},{"bufferView":0,"byteOffset":41556,"componentType":5123,"count":276,"type":"SCALAR","name":"accessorIndices"},{"bufferView":1,"byteOffset":498672,"componentType":5126,"count":276,"max":[1.26219141,0.401371062,-0.153669044],"min":[1.25027478,0.334172875,-0.154135823],"type":"VEC3","name":"accessorPositions"},{"bufferView":1,"byteOffset":501984,"componentType":5126,"count":276,"type":"VEC3","name":"accessorNormals"},{"bufferView":2,"byteOffset":166224,"componentType":5126,"count":276,"type":"VEC2","name":"accessorUVs"},{"bufferView":0,"byteOffset":42108,"componentType":5123,"count":348,"type":"SCALAR","name":"accessorIndices"},{"bufferView":1,"byteOffset":505296,"componentType":5126,"count":348,"max":[1.25349879,0.400901765,-0.1538097],"min":[1.24261236,0.334172875,-0.153995171],"type":"VEC3","name":"accessorPositions"},{"bufferView":1,"byteOffset":509472,"componentType":5126,"count":348,"type":"VEC3","name":"accessorNormals"},{"bufferView":2,"byteOffset":168432,"componentType":5126,"count":348,"type":"VEC2","name":"accessorUVs"},{"bufferView":0,"byteOffset":42804,"componentType":5123,"count":3300,"type":"SCALAR","name":"accessorIndices"},{"bufferView":1,"byteOffset":513648,"componentType":5126,"count":3300,"max":[1.26199722,0.4013055,-0.153742716],"min":[1.2298094,0.398363352,-0.154062152],"type":"VEC3","name":"accessorPositions"},{"bufferView":1,"byteOffset":553248,"componentType":5126,"count":3300,"type":"VEC3","name":"accessorNormals"},{"bufferView":2,"byteOffset":171216,"componentType":5126,"count":3300,"type":"VEC2","name":"accessorUVs"},{"bufferView":0,"byteOffset":49404,"componentType":5123,"count":3672,"type":"SCALAR","name":"accessorIndices"},{"bufferView":1,"byteOffset":592848,"componentType":5126,"count":3672,"max":[1.26196313,0.332373738,-0.138029844],"min":[1.23021793,0.309715927,-0.169775039],"type":"VEC3","name":"accessorPositions"},{"bufferView":1,"byteOffset":636912,"componentType":5126,"count":3672,"type":"VEC3","name":"accessorNormals"},{"bufferView":2,"byteOffset":197616,"componentType":5126,"count":3672,"type":"VEC2","name":"accessorUVs"},{"bufferView":0,"byteOffset":56748,"componentType":5123,"count":1104,"type":"SCALAR","name":"accessorIndices"},{"bufferView":1,"byteOffset":680976,"componentType":5126,"count":1104,"max":[1.29484057,0.28928,-0.105152436],"min":[1.19734061,0.02,-0.202652439],"type":"VEC3","name":"accessorPositions"},{"bufferView":1,"byteOffset":694224,"componentType":5126,"count":1104,"type":"VEC3","name":"accessorNormals"},{"bufferView":2,"byteOffset":226992,"componentType":5126,"count":1104,"type":"VEC2","name":"accessorUVs"},{"bufferView":0,"byteOffset":58956,"componentType":5123,"count":36,"type":"SCALAR","name":"accessorIndices"},{"bufferView":1,"byteOffset":707472,"componentType":5126,"count":36,"max":[1.25025153,0.28928,-0.202652439],"min":[1.24192965,0.28048,-0.35174197],"type":"VEC3","name":"accessorPositions"},{"bufferView":1,"byteOffset":707904,"componentType":5126,"count":36,"type":"VEC3","name":"accessorNormals"},{"bufferView":2,"byteOffset":235824,"componentType":5126,"count":36,"type":"VEC2","name":"accessorUVs"},{"bufferView":0,"byteOffset":59028,"componentType":5123,"count":36,"type":"SCALAR","name":"accessorIndices"},{"bufferView":1,"byteOffset":708336,"componentType":5126,"count":36,"max":[1.44393015,0.28928,-0.149741516],"min":[1.29484057,0.28048,-0.158063352],"type":"VEC3","name":"accessorPositions"},{"bufferView":1,"byteOffset":708768,"componentType":5126,"count":36,"type":"VEC3","name":"accessorNormals"},{"bufferView":2,"byteOffset":236112,"componentType":5126,"count":36,"type":"VEC2","name":"accessorUVs"},{"bufferView":0,"byteOffset":59100,"componentType":5123,"count":36,"type":"SCALAR","name":"accessorIndices"},{"bufferView":1,"byteOffset":709200,"componentType":5126,"count":36,"max":[1.25025141,0.28928,0.0439371057],"min":[1.24192965,0.28048,-0.105152436],"type":"VEC3","name":"accessorPositions"},{"bufferView":1,"byteOffset":709632,"componentType":5126,"count":36,"type":"VEC3","name":"accessorNormals"},{"bufferView":2,"byteOffset":236400,"componentType":5126,"count":36,"type":"VEC2","name":"accessorUVs"},{"bufferView":0,"byteOffset":59172,"componentType":5123,"count":36,"type":"SCALAR","name":"accessorIndices"},{"bufferView":1,"byteOffset":710064,"componentType":5126,"count":36,"max":[1.19734061,0.28928,-0.149741516],"min":[1.048251,0.28048,-0.158063367],"type":"VEC3","name":"accessorPositions"},{"bufferView":1,"byteOffset":710496,"componentType":5126,"count":36,"type":"VEC3","name":"accessorNormals"},{"bufferView":2,"byteOffset":236688,"componentType":5126,"count":36,"type":"VEC2","name":"accessorUVs"}],"bufferViews":[{"buffer":0,"byteLength":59244,"name":"bufferViewScalar"},{"buffer":0,"byteOffset":59244,"byteLength":710928,"byteStride":12,"name":"bufferViewFloatVec3"},{"buffer":0,"byteOffset":770172,"byteLength":236976,"byteStride":8,"name":"bufferViewFloatVec2"}],"buffers":[{"uri":"1.bin","byteLength":1007148}],"materials":[{"pbrMetallicRoughness":{"baseColorTexture":{"index":0,"extensions":{"KHR_texture_transform":{"texCoord":0}}},"metallicFactor":0.0,"roughnessFactor":0.68},"name":"wire_144028177"},{"pbrMetallicRoughness":{"baseColorTexture":{"index":1,"extensions":{"KHR_texture_transform":{"texCoord":0}}},"metallicFactor":0.0,"roughnessFactor":0.9},"name":"15___Default"},{"pbrMetallicRoughness":{"baseColorTexture":{"index":3,"extensions":{"KHR_texture_transform":{"texCoord":0}}},"metallicFactor":0.0,"metallicRoughnessTexture":{"index":4,"extensions":{"KHR_texture_transform":{"texCoord":0}}}},"normalTexture":{"index":2,"scale":0.02,"extensions":{"KHR_texture_transform":{"texCoord":0}}},"name":"16___Default"},{"pbrMetallicRoughness":{"baseColorFactor":[0.945098042,0.980392158,0.972549,0.3],"metallicFactor":0.0,"roughnessFactor":0.68},"alphaMode":"BLEND","name":"wire_026177147"},{"pbrMetallicRoughness":{"baseColorTexture":{"index":5,"extensions":{"KHR_texture_transform":{"texCoord":0}}},"metallicFactor":0.0},"name":"_"},{"pbrMetallicRoughness":{"baseColorFactor":[1.0,1.0,1.0,0.9],"metallicFactor":0.0},"alphaMode":"BLEND","name":"Carpet_P"},{"pbrMetallicRoughness":{"baseColorFactor":[0.858823538,0.858823538,0.858823538,1.0],"metallicFactor":0.0},"name":"glass"},{"pbrMetallicRoughness":{"baseColorFactor":[0.698039234,0.698039234,0.698039234,1.0],"metallicFactor":0.0},"name":"Color_C0"},{"pbrMetallicRoughness":{"baseColorFactor":[1.0,0.7137255,0.09803922,1.0],"metallicFactor":0.0},"name":"lghit"}],"textures":[{"sampler":0,"source":0,"name":"brown_planks_03_diff_1k.png"},{"sampler":0,"source":1,"name":"leather_white_ao_1k.jpg"},{"sampler":0,"source":2,"name":"barTable_01_N.png"},{"sampler":0,"source":3,"name":"barTable_01_D.png"},{"sampler":0,"source":4,"name":"barTable_01_S0.png"},{"sampler":0,"source":5,"name":"_.jpg"}],"images":[{"uri":"./brown_planks_03_diff_1k.png"},{"uri":"./leather_white_ao_1k.jpg"},{"uri":"./barTable_01_N.png"},{"uri":"./barTable_01_D.png"},{"uri":"./barTable_01_S0.png"},{"uri":"./_.jpg"}],"samplers":[{"magFilter":9729,"minFilter":9987}]}