{"asset":{"version":"2.0","generator":"babylon.js glTF exporter for 3dsmax 2021 v20210401.5"},"scene":0,"scenes":[{"nodes":[0]}],"nodes":[{"children":[1,2,3,4],"name":"组001"},{"mesh":0,"translation":[0.6167969,-0.579690158,-0.7181016],"rotation":[0.0,0.7071068,0.0,0.7071067],"name":"Obj3d66-1124755-493-230"},{"mesh":1,"translation":[0.07965625,0.1403091,-0.126675785],"name":"Line001"},{"mesh":2,"translation":[0.644793,-0.273816735,-0.06225391],"rotation":[-0.49999997,-0.50000006,0.500000358,-0.499999732],"scale":[0.890648961,-1.00000048,1.0000006],"name":"Obj3d66-1124755-497-957"},{"mesh":3,"translation":[-0.7480068,-0.273816735,-0.605225265],"rotation":[2.794827E-07,-0.7071066,0.707106948,2.72835649E-07],"scale":[0.890648961,-1.00000048,1.0000006],"name":"Obj3d66-1124755-497-958"}],"meshes":[{"primitives":[{"attributes":{"POSITION":1,"NORMAL":2,"TEXCOORD_0":3},"indices":0,"material":0}],"name":"Obj3d66-1124755-493-230"},{"primitives":[{"attributes":{"POSITION":5,"NORMAL":6},"indices":4,"material":0}],"name":"Line001"},{"primitives":[{"attributes":{"POSITION":8,"NORMAL":9,"TEXCOORD_0":10},"indices":7,"material":0}],"name":"Obj3d66-1124755-497-957"},{"primitives":[{"attributes":{"POSITION":12,"NORMAL":13,"TEXCOORD_0":14},"indices":11,"material":0}],"name":"Obj3d66-1124755-497-958"}],"accessors":[{"bufferView":0,"componentType":5123,"count":60,"type":"SCALAR","name":"accessorIndices"},{"bufferView":1,"componentType":5126,"count":60,"max":[-0.0777148455,1.01999927,0.09799999],"min":[-1.1257149,0.0,-1.30000007],"type":"VEC3","name":"accessorPositions"},{"bufferView":1,"byteOffset":720,"componentType":5126,"count":60,"type":"VEC3","name":"accessorNormals"},{"bufferView":2,"componentType":5126,"count":60,"type":"VEC2","name":"accessorUVs"},{"bufferView":0,"byteOffset":120,"componentType":5123,"count":228,"type":"SCALAR","name":"accessorIndices"},{"bufferView":1,"byteOffset":1440,"componentType":5126,"count":228,"max":[0.6331407,0.0150000006,0.534291],"min":[-0.7628594,0.0,-0.511709034],"type":"VEC3","name":"accessorPositions"},{"bufferView":1,"byteOffset":4176,"componentType":5126,"count":228,"type":"VEC3","name":"accessorNormals"},{"bufferView":0,"byteOffset":576,"componentType":5123,"count":396,"type":"SCALAR","name":"accessorIndices"},{"bufferView":1,"byteOffset":6912,"componentType":5126,"count":396,"max":[-0.08069283,0.350000143,0.300946623],"min":[-0.4736657,-0.05000002,-0.3750003],"type":"VEC3","name":"accessorPositions"},{"bufferView":1,"byteOffset":11664,"componentType":5126,"count":396,"type":"VEC3","name":"accessorNormals"},{"bufferView":2,"byteOffset":480,"componentType":5126,"count":396,"type":"VEC2","name":"accessorUVs"},{"bufferView":0,"byteOffset":1368,"componentType":5123,"count":396,"type":"SCALAR","name":"accessorIndices"},{"bufferView":1,"byteOffset":16416,"componentType":5126,"count":396,"max":[-0.08069283,0.350000143,0.300946623],"min":[-0.4736657,-0.00394601841,-0.3750003],"type":"VEC3","name":"accessorPositions"},{"bufferView":1,"byteOffset":21168,"componentType":5126,"count":396,"type":"VEC3","name":"accessorNormals"},{"bufferView":2,"byteOffset":3648,"componentType":5126,"count":396,"type":"VEC2","name":"accessorUVs"}],"bufferViews":[{"buffer":0,"byteLength":2160,"name":"bufferViewScalar"},{"buffer":0,"byteOffset":2160,"byteLength":25920,"byteStride":12,"name":"bufferViewFloatVec3"},{"buffer":0,"byteOffset":28080,"byteLength":6816,"byteStride":8,"name":"bufferViewFloatVec2"}],"buffers":[{"uri":"520.bin","byteLength":34896}],"materials":[{"pbrMetallicRoughness":{"baseColorFactor":[0.858823538,0.858823538,0.858823538,1.0],"metallicFactor":0.0,"roughnessFactor":0.85},"name":"Mat3d66-1124755-49-8196"}]}